<?xml version="1.0" standalone="no"?>
<!DOCTYPE svg PUBLIC "-//W3C//DTD SVG 20010904//EN"
 "http://www.w3.org/TR/2001/REC-SVG-20010904/DTD/svg10.dtd">
<svg version="1.0" xmlns="http://www.w3.org/2000/svg"
 width="571.000000pt" height="197.000000pt" viewBox="0 0 571.000000 197.000000"
 preserveAspectRatio="xMidYMid meet">
<metadata>
Created by potrace 1.16, written by Peter Selinger 2001-2019
</metadata>
<g transform="translate(0.000000,197.000000) scale(0.100000,-0.100000)"
fill="#000000" stroke="none">
<path d="M592 1617 c-90 -34 -142 -110 -142 -207 0 -200 233 -292 368 -146 70
76 80 171 28 260 -48 81 -168 126 -254 93z"/>
<path d="M570 910 l0 -40 96 0 95 0 -3 -171 c-3 -166 -4 -171 -27 -190 -32
-26 -76 -24 -129 7 -47 28 -46 28 -74 -20 -9 -17 -6 -24 23 -48 101 -84 250
-53 288 61 7 21 11 112 11 237 l0 204 -140 0 -140 0 0 -40z"/>
<path d="M1330 675 l0 -275 165 0 165 0 0 40 0 40 -120 0 -120 0 0 235 0 235
-45 0 -45 0 0 -275z"/>
<path d="M2257 923 c-22 -42 -227 -510 -227 -517 0 -3 20 -6 44 -6 l44 0 27
65 28 66 140 -3 139 -3 26 -62 26 -63 47 0 c37 0 47 3 43 14 -3 7 -56 130
-118 272 l-114 259 -45 3 c-42 3 -47 0 -60 -25z m106 -191 c26 -59 47 -111 47
-115 0 -4 -45 -7 -101 -7 -77 0 -100 3 -96 13 32 81 92 217 97 217 4 0 27 -49
53 -108z"/>
<path d="M3060 595 c0 -77 4 -125 10 -125 6 0 10 43 11 108 l0 107 42 -107
c23 -60 47 -108 52 -108 6 0 28 46 49 103 22 56 42 105 45 109 3 4 4 -42 3
-102 -3 -95 -2 -110 12 -110 14 0 16 18 16 126 0 123 0 125 -21 122 -17 -2
-29 -22 -56 -93 -19 -49 -38 -94 -43 -98 -4 -5 -25 37 -46 92 -29 75 -43 101
-56 101 -16 0 -18 -12 -18 -125z"/>
<path d="M4510 595 c0 -154 18 -170 22 -19 l3 105 68 -105 c38 -58 75 -106 83
-106 11 0 14 24 14 125 0 77 -4 125 -10 125 -6 0 -10 -43 -10 -107 l0 -108
-71 108 c-39 59 -77 107 -85 107 -11 0 -14 -23 -14 -125z"/>
<path d="M4925 711 c-11 -5 -31 -21 -45 -36 -31 -33 -35 -115 -8 -158 23 -34
82 -52 142 -43 l46 7 0 60 0 59 -40 0 c-22 0 -40 -4 -40 -10 0 -5 11 -10 25
-10 22 0 25 -4 25 -39 0 -33 -4 -40 -24 -45 -38 -9 -85 4 -106 32 -24 30 -27
98 -5 129 21 30 72 45 112 34 31 -9 54 1 39 16 -10 10 -100 13 -121 4z"/>
</g>
</svg>
