<?xml version="1.0" standalone="no"?>
<!DOCTYPE svg PUBLIC "-//W3C//DTD SVG 20010904//EN"
 "http://www.w3.org/TR/2001/REC-SVG-20010904/DTD/svg10.dtd">
<svg version="1.0" xmlns="http://www.w3.org/2000/svg"
 width="695.000000pt" height="494.000000pt" viewBox="0 0 695.000000 494.000000"
 preserveAspectRatio="xMidYMid meet">
<metadata>
Created by potrace 1.16, written by Peter Selinger 2001-2019
</metadata>
<g transform="translate(0.000000,494.000000) scale(0.100000,-0.100000)"
fill="#000000" stroke="none">
<path d="M2864 3979 c26 -127 33 -465 16 -799 -22 -432 -42 -602 -89 -764
l-28 -99 -42 -13 c-23 -7 -57 -24 -76 -39 -29 -22 -35 -32 -35 -65 0 -34 8
-48 62 -105 l62 -67 -37 -201 c-20 -110 -41 -203 -46 -206 -5 -3 -24 -121 -44
-261 -29 -216 -35 -286 -36 -457 -1 -164 2 -209 15 -242 21 -54 56 -75 124
-75 78 0 144 38 347 201 127 101 194 147 272 186 l104 52 106 0 c96 0 111 -3
163 -28 87 -43 153 -110 270 -274 132 -185 161 -213 226 -213 140 0 216 74
257 250 27 114 32 426 10 621 -21 188 -63 396 -111 551 l-37 117 24 78 c16 52
23 103 24 155 0 74 -1 79 -32 110 -29 29 -39 32 -85 31 -29 0 -59 -2 -67 -4
-10 -3 -42 51 -100 168 -47 94 -93 180 -102 190 -8 10 -47 68 -85 128 -79 126
-249 356 -362 489 -203 239 -498 514 -643 600 l-32 19 7 -34z m522 -1075 c28
-57 27 -108 -2 -165 -20 -39 -79 -87 -121 -98 -62 -16 -173 16 -173 50 0 6 -7
9 -15 5 -19 -7 -19 8 -1 66 26 86 90 147 202 193 68 28 72 26 110 -51z m482
-131 c61 -108 235 -459 246 -499 6 -19 -18 -40 -180 -159 -102 -75 -192 -139
-199 -142 -8 -2 -67 25 -133 62 -145 79 -244 125 -272 125 -34 0 -40 -38 -31
-183 5 -72 7 -135 4 -139 -2 -5 -20 -8 -39 -8 -27 0 -45 9 -82 44 -26 24 -72
56 -102 71 -44 22 -206 119 -218 129 -5 5 79 380 88 391 5 5 22 18 39 28 l30
17 30 -43 c57 -84 145 -127 273 -135 97 -5 156 6 233 45 184 92 283 299 229
481 -4 16 -2 22 8 22 8 0 42 -48 76 -107z m325 -827 c-15 -25 -31 -45 -34 -46
-12 0 -17 43 -23 190 l-6 145 46 -122 46 -122 -29 -45z m-1233 -56 c30 -18 98
-52 150 -75 91 -41 95 -44 98 -76 5 -65 13 -82 67 -135 55 -55 56 -58 68 -168
2 -17 10 -33 18 -37 8 -4 108 -28 223 -53 l208 -45 189 87 189 87 0 108 c0 74
5 119 15 144 11 25 14 51 9 80 -6 39 -3 46 25 72 l30 28 17 -56 c84 -288 99
-393 99 -696 0 -274 -12 -396 -45 -472 -21 -49 -44 -63 -100 -63 -50 0 -60 10
-162 158 -86 125 -232 277 -304 315 -186 98 -389 67 -601 -92 -43 -32 -129
-104 -191 -159 -116 -104 -205 -159 -240 -148 -80 26 -56 363 73 1051 19 105
38 196 40 203 4 11 12 9 37 -6 18 -11 58 -35 88 -52z"/>
</g>
</svg>
